<svg width="40" height="40" viewBox="0 0 40 40" fill="none" xmlns="http://www.w3.org/2000/svg">
<path d="M33.3333 20.4572C33.3333 21.09 32.863 21.613 32.2529 21.6957L32.0833 21.7072L7.08325 21.7072C6.3929 21.7072 5.83325 21.1475 5.83325 20.4572C5.83325 19.8243 6.30351 19.3013 6.91364 19.2186L7.08325 19.2072L32.0833 19.2072C32.7736 19.2072 33.3333 19.7668 33.3333 20.4572Z" fill="#1C1C1C"/>
<path d="M18.0482 29.6121C18.5374 30.0992 18.5391 30.8906 18.052 31.3798C17.6092 31.8245 16.9149 31.8664 16.4247 31.5044L16.2843 31.3836L6.20095 21.3436C5.75489 20.8995 5.71431 20.2026 6.07923 19.7125L6.20087 19.5721L16.2842 9.53046C16.7734 9.04331 17.5648 9.04495 18.052 9.53412C18.4948 9.97881 18.5337 10.6733 18.1696 11.1619L18.0483 11.3019L8.85493 20.4583L18.0482 29.6121Z" fill="#1C1C1C"/>
</svg>
